<svg xmlns="http://www.w3.org/2000/svg" xml:space="preserve" viewBox="0 0 512 512">
  <path fill="#0200FF" d="M29.4 392.5a26 26 0 0 1-2.3-24.7c14.2-35.5 28.5-71 42.5-106.4 20.7-52.6 41.4-105.2 61.9-157.8 3.7-9.5 6.5-19.2 9.8-28.8A21.6 21.6 0 0 1 163.5 59H352c9.1.1 16.9 5.7 20 14l81.6 211.5c10.8 28 22.1 55.6 33.3 83.3 7 17-4.8 36-23 36-38.5.4-77 .2-115.5.2-.3 0-.6-.2-1.4-.5 0-3.6-.2-7.4 0-11.2.6-8.6-3-15.5-9.1-21-3.4-3.2-7.2-6-11-8.7a31.3 31.3 0 0 1-14-27.8c0-19.8-.3-39.6 0-59.5 1-53.8-20.2-98.8-54.6-138.7-.3-.4-.8-.6-1.6-1.3-3.7 4.5-7.5 8.9-11 13.5a204 204 0 0 0-42.1 92c-1.6 9.8-2.2 19.9-2.4 29.8-.4 20.5-.4 41 0 61.5.2 13.6-4.2 24.3-15.9 31.9-7.5 5-14.6 10.5-17.3 19.8-.5 1.7-1 3.5-1 5.3V404H52.8c-9.7 0-17.5-3.3-23.4-11.5z"/>
  <path fill="#0402FF" d="M266.6 273.2c15.7 5.7 24.5 17.6 24.4 32.7a33.4 33.4 0 1 1-26.8-33.1l2.4.4z"/>
  <path fill="#0503FF" d="M254.7 440.6c-4.3-1.7-5.8-4.7-5.7-8.8v-33.5c0-5.7 3.3-9.4 8.1-9.3 4.9 0 7.9 3.7 7.9 9.6v33c0 6.7-3 9.4-10.3 9zM215 429v-16c0-5.4 3.2-9 7.9-9s8 3.4 8 8.8c.2 11.5.2 23 0 34.4 0 5.4-3.3 8.9-8 8.8-4.7 0-7.8-3.6-7.9-9v-18zM295.8 455c-7.2 2-11.7-1-11.8-7.9v-34.5c0-5 3.3-8.5 7.8-8.6 4.7-.1 8.1 3.4 8.2 8.8 0 11.4.2 23-.2 34.4 0 2.6-2.4 5.1-4 7.8z"/>
</svg>
